<svg width="62" height="71" viewBox="0 0 62 71" fill="none" xmlns="http://www.w3.org/2000/svg">
<g clip-path="url(#clip0_738_5051)">
<path d="M18.347 70.37H61.356V26.281H18.347V70.37Z" fill="white"/>
<path d="M46.387 16.0895H32.1437C29.9654 16.0895 28.2338 17.9217 28.2338 20.0975V37.5613H30.6356V20.0975C30.6356 19.6967 30.8032 19.2959 31.0825 19.0096C31.3618 18.7233 31.7527 18.5516 32.1437 18.5516H46.387C46.778 18.5516 47.169 18.7233 47.4482 19.0096C47.7275 19.2959 47.8951 19.6967 47.8951 20.0975V37.5613H50.2969V20.0975C50.2969 17.9217 48.5095 16.0895 46.387 16.0895Z" fill="white"/>
<path d="M35.8302 42.142C35.2716 42.142 34.7131 42.371 34.3221 42.7718L31.3059 45.8637C30.468 46.7226 30.468 48.0968 31.3059 48.9557L39.8518 57.7162L48.3978 48.9557C49.2356 48.0968 49.2356 46.7226 48.3978 45.8637L45.3257 42.7718C44.9347 42.3137 44.3761 42.142 43.8176 42.142C43.259 42.142 42.7005 42.371 42.3095 42.7718L39.796 45.3484L37.2824 42.7718C36.9473 42.371 36.3888 42.142 35.8302 42.142Z" fill="#CB2026"/>
<path d="M0.675937 49.6972L12.8327 45.8094L13.5812 48.2691L1.42442 52.1569L0.675937 49.6972Z" fill="#CCCCCB"/>
<path d="M0.385851 56.3966L12.543 52.5099L13.2912 54.9697L1.13507 58.8561L0.385851 56.3966Z" fill="#CCCCCB"/>
<path d="M0.0438493 63.0876L12.201 59.2009L12.9492 61.6607L0.792117 65.5474L0.0438493 63.0876Z" fill="#CCCCCB"/>
<path d="M45.772 0H33.149V4.81H45.772V0Z" fill="white"/>
<path d="M48.0626 14.2573C48.2302 11.967 44.9906 7.10001 44.9906 7.10001V4.80969H33.987L33.0374 8.13066C32.9815 8.18792 32.9816 8.24518 32.9816 8.30243C32.9257 8.41695 32.8698 8.47421 32.8698 8.58872C32.7581 8.81776 32.7023 8.98953 32.6464 9.21856C32.5906 9.39034 32.5347 9.56211 32.4788 9.73389V9.79114C32.1996 10.65 32.032 11.7379 31.9761 12.9403C31.8644 14.7726 32.032 16.204 32.032 16.204V18.5516C32.032 19.0097 32.3113 19.4105 32.7023 19.6395C32.8698 19.6968 33.0374 19.754 33.205 19.754H33.596C34.2104 19.754 34.7131 19.2387 34.7689 18.6089V18.5516V18.4371H34.9365V18.7807C34.9365 19.296 35.1599 19.754 35.4951 20.0403C35.7743 20.3266 36.1653 20.4411 36.5563 20.4411C37.3942 20.4411 38.0644 19.8113 38.1761 18.9524C38.1761 18.8952 38.1761 18.8379 38.1761 18.7234V18.6661H38.3437V19.4105C38.3437 19.9258 38.5671 20.3839 38.9023 20.6702C39.1815 20.9565 39.5725 21.1282 39.9635 21.1282C40.8014 21.1282 41.4716 20.4984 41.5834 19.6968V19.6395C41.5834 19.5823 41.5834 19.4678 41.5834 19.4105V18.9524H41.7509V19.9831C41.7509 20.4984 41.9743 21.0137 42.3095 21.3C42.5888 21.5863 42.9797 21.7008 43.3707 21.7008C44.2644 21.7008 45.0464 20.9565 45.0464 19.9831V19.296V15.1161V15.9178C47.2806 15.746 48.1185 16.3186 48.1185 16.3186L48.0626 14.2573C48.1185 14.2573 48.0626 14.2573 48.0626 14.2573Z" fill="#C9A284"/>
</g>
<defs>
<clipPath id="clip0_738_5051">
<rect width="62" height="71" fill="white"/>
</clipPath>
</defs>
</svg>
