<svg width="148" height="46" viewBox="0 0 148 46" fill="none" xmlns="http://www.w3.org/2000/svg">
<path d="M130.033 0C129.414 0 128.794 0.234894 128.329 0.704681L124.96 4.11064C124.031 5.05021 124.031 6.57702 124.96 7.5166L134.525 17.2255L144.09 7.55575C145.019 6.61617 145.019 5.08936 144.09 4.14979L140.721 0.74383C140.218 0.234894 139.598 0 139.017 0C138.398 0 137.778 0.234894 137.313 0.704681L134.525 3.5234L131.737 0.704681C131.272 0.234894 130.653 0 130.033 0" fill="#F5CCCC"/>
<path d="M131.272 4.7373C130.846 4.7373 130.382 4.8939 130.033 5.24624L127.594 7.71262C126.935 8.37816 126.935 9.51348 127.594 10.179L134.525 17.2258L141.457 10.2182C142.115 9.55262 142.115 8.4173 141.457 7.75177L139.017 5.28539C138.669 4.93305 138.243 4.77645 137.778 4.77645C137.352 4.77645 136.887 4.93305 136.539 5.28539L134.525 7.32113L132.512 5.28539C132.163 4.93305 131.737 4.7373 131.272 4.7373" fill="#E06666"/>
<path d="M132.512 9.51367C132.24 9.51367 131.969 9.63112 131.737 9.82686L130.227 11.3537C129.801 11.7843 129.801 12.4498 130.227 12.8805L134.525 17.226L138.823 12.8805C139.249 12.4498 139.249 11.7843 138.823 11.3537L137.313 9.82686C137.12 9.63112 136.849 9.51367 136.539 9.51367C136.268 9.51367 135.997 9.63112 135.764 9.82686L134.525 11.0796L133.286 9.82686C133.054 9.59197 132.783 9.51367 132.512 9.51367" fill="#CC0000"/>
<path d="M12.5464 28.1868C12.2367 26.1902 10.9588 25.1332 8.94517 25.1332C5.8473 25.1332 4.80176 28.3043 4.80176 30.9273C4.80176 33.4719 5.80857 36.5647 8.829 36.5647C11.075 36.5647 12.3916 35.1162 12.7013 32.9239H17.3869C16.7673 37.6609 13.5145 40.2447 8.90644 40.2447C3.60134 40.2056 6.10352e-05 36.4081 6.10352e-05 31.0839C6.10352e-05 25.5247 3.29155 21.4141 9.02261 21.4141C13.2047 21.4141 16.9996 23.6064 17.3094 28.1868H12.5464Z" fill="#CC0000"/>
<path fill-rule="evenodd" clip-rule="evenodd" d="M35.4707 26.5034V35.7817C35.4707 37.3868 35.6256 38.9919 36.0903 39.7358H31.1724C30.9788 39.1877 30.8626 38.6004 30.8239 38.0132C29.3137 39.6183 27.0677 40.2056 24.8992 40.2056C21.569 40.2056 18.8971 38.483 18.8971 34.8421C18.8971 30.8098 21.8788 29.8702 24.8992 29.4396C25.4526 29.3524 25.998 29.2854 26.5193 29.2214C28.8068 28.9406 30.6303 28.7167 30.6303 27.0907C30.6303 24.9766 29.1975 24.6634 27.4937 24.6634C25.635 24.6634 24.4345 25.4464 24.2796 27.3647H19.4392C19.7103 22.7843 23.7762 21.4141 27.726 21.4141C31.2498 21.4141 35.4707 22.2362 35.4707 26.5034ZM26.6805 36.9562C30.4367 36.9562 30.5915 33.9026 30.5915 32.8456V31.0447C29.9809 31.5738 28.8682 31.7277 27.7123 31.8876C27.3288 31.9406 26.9405 31.9943 26.5643 32.0626C25.0541 32.3758 23.6988 32.8847 23.6988 34.6856C23.6988 36.5256 25.0928 36.9562 26.6805 36.9562Z" fill="#CC0000"/>
<path d="M38.5686 21.8838H43.1767V25.2115H43.2541C44.1447 22.98 46.5456 21.4141 48.869 21.4141C49.2175 21.4141 49.6047 21.4924 49.9145 21.5707V26.1119C49.4886 25.9945 48.7528 25.9553 48.172 25.9553C44.6094 25.9553 43.409 28.5392 43.409 31.6711V39.6966H38.5686V21.8838Z" fill="#CC0000"/>
<path fill-rule="evenodd" clip-rule="evenodd" d="M50.3792 30.849C50.3792 25.4856 54.0579 21.4141 59.4018 21.4141C65.4039 21.4141 68.3081 26.5034 67.9596 32.0626H55.2196C55.3745 35.1553 56.846 36.5647 59.5567 36.5647C61.5315 36.5647 63.0805 35.3511 63.3903 34.2549H67.6498C66.2945 38.4439 63.3903 40.2447 59.4018 40.2447C53.8256 40.2447 50.3792 36.369 50.3792 30.849ZM59.2469 25.0941C56.1877 25.0941 55.2971 27.5213 55.2196 28.8915H63.1192C62.6545 26.386 61.609 25.0941 59.2469 25.0941Z" fill="#CC0000"/>
<path fill-rule="evenodd" clip-rule="evenodd" d="M74.9686 24.1545C76.1303 22.2753 78.0664 21.4141 80.235 21.4141C85.7724 21.4141 88.2507 25.9162 88.2507 31.0447C88.2507 35.7817 85.6562 40.2447 80.506 40.2447C78.3762 40.2447 76.3626 39.3051 75.2009 37.5434H75.1235V45.9996H70.283V21.8838H74.8911V24.1545H74.9686ZM75.0073 30.849C75.0073 33.7851 76.0916 36.5256 79.2281 36.5256C82.4035 36.5256 83.4103 33.746 83.4103 30.849C83.4103 28.0302 82.2873 25.0941 79.1894 25.0941C76.0141 25.0941 75.0073 27.9519 75.0073 30.849Z" fill="#CC0000"/>
<path fill-rule="evenodd" clip-rule="evenodd" d="M106.412 26.5034V35.7817C106.412 37.3868 106.606 38.9919 107.032 39.7358H102.114C101.92 39.1877 101.804 38.6004 101.765 38.0132C100.255 39.6183 98.009 40.2056 95.8405 40.2056C92.5103 40.2056 89.8384 38.483 89.8384 34.8421C89.8384 30.8098 92.8201 29.8702 95.8405 29.4396C96.3939 29.3524 96.9393 29.2854 97.4606 29.2214C99.748 28.9406 101.572 28.7167 101.572 27.0907C101.572 24.9766 100.139 24.6634 98.435 24.6634C96.5762 24.6634 95.3758 25.4464 95.2209 27.3647H90.3805C90.6515 22.7843 94.7175 21.4141 98.6673 21.4141C102.191 21.4141 106.412 22.2362 106.412 26.5034ZM97.6605 36.9562C101.417 36.9562 101.572 33.9026 101.572 32.8456V31.0447C100.961 31.5738 99.8482 31.7277 98.6923 31.8876C98.3088 31.9406 97.9205 31.9943 97.5443 32.0626C96.0341 32.3758 94.6788 32.8847 94.6788 34.6856C94.6788 36.5256 96.0728 36.9562 97.6605 36.9562Z" fill="#CC0000"/>
<path d="M113.15 33.9416C113.189 36.0948 114.97 36.9561 116.867 36.9561C118.261 36.9561 120.043 36.408 120.043 34.6855C120.043 33.1978 118.029 32.6889 114.544 31.945C111.756 31.3187 108.929 30.3399 108.929 27.1689C108.929 22.6276 112.801 21.4531 116.596 21.4531C120.469 21.4531 123.992 22.745 124.38 27.1297H119.772C119.617 25.2506 118.184 24.7025 116.48 24.7025C115.396 24.7025 113.769 24.8982 113.769 26.3467C113.769 28.1084 116.519 28.3433 119.268 29.0089C122.095 29.6744 124.883 30.6923 124.883 34.0199C124.883 38.7178 120.856 40.2446 116.829 40.2446C112.724 40.2446 108.735 38.6787 108.542 33.9808H113.15V33.9416Z" fill="#CC0000"/>
<path d="M130.963 33.9416C131.001 36.0948 132.783 36.9561 134.68 36.9561C136.074 36.9561 137.855 36.408 137.855 34.6855C137.855 33.1978 135.842 32.6889 132.357 31.945C129.569 31.3187 126.742 30.3399 126.742 27.1689C126.742 22.6276 130.614 21.4531 134.409 21.4531C138.281 21.4531 141.805 22.745 142.192 27.1297H137.584C137.429 25.2506 135.997 24.7025 134.293 24.7025C133.209 24.7025 131.582 24.8982 131.582 26.3467C131.582 28.1084 134.293 28.3433 137.081 29.0089C139.908 29.6744 142.696 30.6923 142.696 34.0199C142.696 38.7178 138.669 40.2446 134.641 40.2446C130.537 40.2446 126.548 38.6787 126.355 33.9808H130.963V33.9416Z" fill="#CC0000"/>
<path fill-rule="evenodd" clip-rule="evenodd" d="M143.393 23.8418C143.393 25.0945 144.283 26.0341 145.523 26.0341C146.646 26.0341 147.652 25.1728 147.652 23.8418C147.652 22.5107 146.646 21.6494 145.523 21.6494C144.361 21.6494 143.393 22.5107 143.393 23.8418ZM143.858 23.8026C143.858 22.7456 144.593 22.0018 145.523 22.0018C146.452 22.0018 147.188 22.7456 147.188 23.8026C147.188 24.8596 146.452 25.6035 145.523 25.6035C144.477 25.6035 143.858 24.7813 143.858 23.8026ZM145.097 25.0945H144.709V22.6673H145.639C146.22 22.6673 146.529 22.863 146.529 23.372C146.529 23.8026 146.258 23.9984 145.91 24.0375L146.568 25.0945H146.103L145.484 24.0375H145.097V25.0945ZM146.065 23.3328C146.065 23.6852 145.832 23.7243 145.523 23.7243H145.097V23.0196H145.561C145.794 23.0196 146.065 23.0196 146.065 23.3328Z" fill="#CC0000"/>
</svg>
