<svg width="191" height="191" viewBox="0 0 191 191" fill="none" xmlns="http://www.w3.org/2000/svg">
<circle cx="95.0229" cy="95.5928" r="95" fill="white"/>
<path d="M29.6917 79.2363C28.4995 79.2363 27.3073 79.6898 26.3973 80.5991L19.8043 87.1708C17.9886 88.9805 17.9886 91.9262 19.8108 93.7403L38.4154 112.287L57.0222 93.7403C58.8443 91.9262 58.8378 88.9849 57.0178 87.1708L50.4313 80.6013C49.5213 79.692 48.3291 79.2363 47.1413 79.2363C45.9535 79.2363 44.7504 79.6942 43.836 80.61L38.4176 86.0108L32.9926 80.6034C32.0826 79.692 30.8882 79.2363 29.6917 79.2363Z" fill="#CC0000"/>
<path d="M61.9729 112.245V79.2734H70.4517V91.9984H82.6574V79.2734H91.1363V112.245H82.6574V99.056H70.4517V112.245H61.9729Z" fill="#CC0000"/>
<path d="M93.468 112.245V79.2736H116.111V86.1458H101.855V92.1839H115.087V98.6853H101.855V105.373H116.111V112.245H93.468Z" fill="#CC0000"/>
<path d="M118.581 112.245V79.2736H133.025C135.634 79.2736 137.876 79.7532 139.758 80.7126C141.637 81.672 143.089 82.9889 144.113 84.6591C145.139 86.3315 145.651 88.2655 145.651 90.4633C145.651 92.4758 145.115 94.3248 144.043 96.0124C142.971 97.7001 141.457 98.993 139.499 99.8892L147.046 112.243H137.776L131.765 101.655H126.965V112.243H118.578L118.581 112.245ZM131.953 86.0066H126.967V95.1555H131.953C133.567 95.1555 134.825 94.7369 135.726 93.9018C136.627 93.0667 137.078 91.9831 137.078 90.6509C137.078 89.2271 136.636 88.0976 135.75 87.2603C134.864 86.4252 133.6 86.0066 131.953 86.0066Z" fill="#CC0000"/>
<path d="M148.915 112.245V79.2736H171.557V86.1458H157.301V92.1839H170.533V98.6853H157.301V105.373H171.557V112.245H148.915Z" fill="black"/>
</svg>
