<svg width="31" height="31" viewBox="0 0 31 31" fill="none" xmlns="http://www.w3.org/2000/svg">
<path d="M22.6319 30.7724C21.6022 30.7745 20.5823 30.5724 19.6307 30.1777C18.6792 29.783 17.8148 29.2034 17.0873 28.4724L2.77101 14.1724C1.30407 12.7003 0.47998 10.704 0.47998 8.6224C0.47998 6.54083 1.30407 4.54449 2.77101 3.0724C4.24635 1.60147 6.24185 0.775879 8.32184 0.775879C10.4018 0.775879 12.3973 1.60147 13.8727 3.0724L28.189 17.3724C29.6559 18.8445 30.48 20.8408 30.48 22.9224C30.48 25.004 29.6559 27.0003 28.189 28.4724V28.4724C27.4591 29.2038 26.5926 29.7835 25.639 30.1782C24.6854 30.5729 23.6635 30.7748 22.6319 30.7724V30.7724ZM8.32807 2.0224C7.46047 2.02095 6.60113 2.19135 5.79933 2.52383C4.99752 2.85631 4.26904 3.34433 3.65565 3.9599C3.0431 4.57092 2.55699 5.29741 2.22528 6.09757C1.89357 6.89773 1.72281 7.75579 1.72281 8.6224C1.72281 9.489 1.89357 10.3471 2.22528 11.1472C2.55699 11.9474 3.0431 12.6739 3.65565 13.2849L17.9719 27.5849C19.2138 28.823 20.8935 29.5179 22.6444 29.5179C24.3952 29.5179 26.0749 28.823 27.3168 27.5849C27.9293 26.9739 28.4154 26.2474 28.7471 25.4472C29.0788 24.6471 29.2496 23.789 29.2496 22.9224C29.2496 22.0558 29.0788 21.1977 28.7471 20.3976C28.4154 19.5974 27.9293 18.8709 27.3168 18.2599L12.988 3.9599C11.7507 2.72204 10.0755 2.02552 8.32807 2.0224V2.0224Z" fill="black"/>
<path d="M16.5267 11.8224C16.6309 11.9222 16.7135 12.0426 16.7693 12.1759C16.825 12.3093 16.8527 12.4528 16.8506 12.5974V14.3849H18.6324C18.7763 14.3842 18.9189 14.4127 19.0516 14.4685C19.1843 14.5243 19.3045 14.6064 19.4049 14.7099C19.6064 14.9179 19.7222 15.1948 19.7288 15.4849V17.6849C19.7322 17.8303 19.7062 17.9748 19.6523 18.1098C19.5984 18.2448 19.5178 18.3675 19.4153 18.4703C19.3128 18.5731 19.1905 18.654 19.056 18.7081C18.9214 18.7622 18.7773 18.7883 18.6324 18.7849H12.4772V12.5349C12.4738 12.3895 12.4998 12.2449 12.5537 12.1099C12.6076 11.9749 12.6883 11.8523 12.7908 11.7494C12.8933 11.6466 13.0155 11.5657 13.1501 11.5116C13.2847 11.4576 13.4288 11.4314 13.5737 11.4349H15.7666C16.0493 11.4487 16.3164 11.5692 16.5142 11.7724" fill="black"/>
<path d="M6.1352 9.52246C6.47926 9.52246 6.75818 9.24264 6.75818 8.89746C6.75818 8.55228 6.47926 8.27246 6.1352 8.27246C5.79113 8.27246 5.51221 8.55228 5.51221 8.89746C5.51221 9.24264 5.79113 9.52246 6.1352 9.52246Z" fill="black"/>
<path d="M8.62714 7.02246C8.97121 7.02246 9.25013 6.74264 9.25013 6.39746C9.25013 6.05228 8.97121 5.77246 8.62714 5.77246C8.28307 5.77246 8.00415 6.05228 8.00415 6.39746C8.00415 6.74264 8.28307 7.02246 8.62714 7.02246Z" fill="black"/>
<path d="M8.62714 12.0225C8.97121 12.0225 9.25013 11.7426 9.25013 11.3975C9.25013 11.0523 8.97121 10.7725 8.62714 10.7725C8.28307 10.7725 8.00415 11.0523 8.00415 11.3975C8.00415 11.7426 8.28307 12.0225 8.62714 12.0225Z" fill="black"/>
<path d="M11.1191 9.52246C11.4631 9.52246 11.7421 9.24264 11.7421 8.89746C11.7421 8.55228 11.4631 8.27246 11.1191 8.27246C10.775 8.27246 10.4961 8.55228 10.4961 8.89746C10.4961 9.24264 10.775 9.52246 11.1191 9.52246Z" fill="black"/>
<path d="M19.8409 23.2725C20.185 23.2725 20.4639 22.9926 20.4639 22.6475C20.4639 22.3023 20.185 22.0225 19.8409 22.0225C19.4968 22.0225 19.2179 22.3023 19.2179 22.6475C19.2179 22.9926 19.4968 23.2725 19.8409 23.2725Z" fill="black"/>
<path d="M22.3329 20.7725C22.677 20.7725 22.9559 20.4926 22.9559 20.1475C22.9559 19.8023 22.677 19.5225 22.3329 19.5225C21.9889 19.5225 21.71 19.8023 21.71 20.1475C21.71 20.4926 21.9889 20.7725 22.3329 20.7725Z" fill="black"/>
<path d="M22.3329 25.7725C22.677 25.7725 22.9559 25.4926 22.9559 25.1475C22.9559 24.8023 22.677 24.5225 22.3329 24.5225C21.9889 24.5225 21.71 24.8023 21.71 25.1475C21.71 25.4926 21.9889 25.7725 22.3329 25.7725Z" fill="black"/>
<path d="M24.8249 23.2725C25.169 23.2725 25.4479 22.9926 25.4479 22.6475C25.4479 22.3023 25.169 22.0225 24.8249 22.0225C24.4808 22.0225 24.2019 22.3023 24.2019 22.6475C24.2019 22.9926 24.4808 23.2725 24.8249 23.2725Z" fill="black"/>
</svg>
