<svg width="74" height="72" viewBox="0 0 74 72" fill="none" xmlns="http://www.w3.org/2000/svg">
<path d="M28.3588 5.83691H24.6565V13.1193H28.3588V5.83691Z" fill="#A50000"/>
<path d="M32.7845 13.1193H20.2299V19.5822H32.7845V13.1193Z" fill="black"/>
<path d="M38.5757 5.58086H22.3921V1.18952e-06H26.7356C26.839 -0.000131082 26.9422 0.0107682 27.0433 0.0325184L37.3971 2.24454C37.7306 2.31607 38.0296 2.50101 38.2442 2.76842C38.4587 3.03582 38.5757 3.36947 38.5757 3.71353V5.58086Z" fill="#E9E9E9"/>
<path d="M38.5757 4.23865H22.3921V5.8369H38.5757V4.23865Z" fill="#CCCCCC"/>
<path d="M18.0445 60.6408H45.0145V35.0851H18.0445C17.2559 35.0851 16.4996 35.4012 15.942 35.9639C15.3844 36.5266 15.0712 37.2899 15.0712 38.0857V57.6402C15.0712 58.436 15.3844 59.1992 15.942 59.7619C16.4996 60.3247 17.2559 60.6408 18.0445 60.6408" fill="white"/>
<path d="M24.2473 42.508C24.0375 42.508 23.8299 42.55 23.6363 42.6315C23.4427 42.713 23.2671 42.8324 23.1195 42.9827L20.8551 45.2671C20.5556 45.5699 20.3875 45.9803 20.3875 46.4081C20.3875 46.8359 20.5556 47.2462 20.8551 47.549L27.2391 53.9916L33.6239 47.5433C33.9235 47.2406 34.0918 46.8303 34.0918 46.4024C34.0918 45.9745 33.9235 45.5641 33.6239 45.2614L31.3611 42.9835C31.2137 42.833 31.038 42.7135 30.8444 42.632C30.6508 42.5505 30.4431 42.5086 30.2333 42.5088C30.0223 42.5082 29.8133 42.5502 29.6186 42.6321C29.4238 42.714 29.2472 42.8343 29.0991 42.986L27.2407 44.8606L25.3807 42.9819C25.2323 42.831 25.0557 42.7113 24.8611 42.6296C24.6666 42.548 24.4579 42.5061 24.2473 42.5063" fill="#CC0000"/>
<path d="M18.0445 60.6407C17.2559 60.6407 16.4996 60.3246 15.942 59.7619C15.3844 59.1992 15.0712 58.436 15.0712 57.6402V38.0856C15.0712 37.2898 15.3844 36.5266 15.942 35.9639C16.4996 35.4012 17.2559 35.085 18.0445 35.085H45.0145V31.9145C45.0144 31.1904 44.8542 30.4754 44.5457 29.8216C44.2371 29.1678 43.788 28.5917 43.231 28.1352L32.7845 19.5781H20.2299L9.57406 28.3059C9.08251 28.7083 8.68614 29.2163 8.41383 29.7929C8.14153 30.3695 8.00015 31.0002 8 31.639V69.6807C8 70.2956 8.24205 70.8853 8.6729 71.3201C9.10376 71.7549 9.68812 71.9992 10.2974 71.9992H42.2941C43.0156 71.9992 43.7075 71.7099 44.2177 71.1951C44.7279 70.6803 45.0145 69.982 45.0145 69.2539V60.6407H18.0445Z" fill="#A50000"/>
<path d="M66 70.6091C66 71.6366 65.6375 71.9992 64.6088 71.9992H38.3308C37.4076 71.9992 37.0153 71.6098 37.0153 70.6879C37.0153 59.0311 37.0153 61.5016 37.0153 49.8448C37.0153 48.9238 37.4076 48.5311 38.3292 48.5311H64.6845C65.619 48.5311 65.9992 48.9238 65.9992 49.8831V70.6131" fill="#CCCCCC"/>
<path d="M65.9992 51.6439H44.3757V68.241H65.9992V51.6439Z" fill="white"/>
<path d="M66 55.0769H54.1116V57.9328H66V55.0769Z" fill="black"/>
<path d="M66 61.9512H58.2876V64.807H66V61.9512Z" fill="black"/>
<path d="M61.5163 42.5463H60.7357C60.7357 42.5463 61.3801 41.9057 61.3801 40.6806C61.3801 39.6945 60.5246 38.8222 59.6119 38.8173H59.1898C57.1558 38.8173 58.8418 34.4534 52.5504 34.5087C54.28 35.433 54.5595 38.8214 51.7546 38.8214H43.4855C42.9941 38.8214 42.5229 39.0184 42.1754 39.369C41.828 39.7197 41.6327 40.1952 41.6327 40.6911C41.6327 41.7211 42.3795 42.5568 42.3795 42.5568H41.4934C41.0217 42.585 40.5785 42.7938 40.2544 43.1408C39.9303 43.4878 39.7498 43.9466 39.7498 44.4234C39.7498 44.9002 39.9303 45.359 40.2544 45.7059C40.5785 46.0529 41.0217 46.2618 41.4934 46.2899H61.5114C61.7635 46.3049 62.016 46.2678 62.2533 46.1808C62.4906 46.0938 62.7078 45.9587 62.8916 45.7839C63.0753 45.6091 63.2217 45.3983 63.3218 45.1643C63.4218 44.9303 63.4734 44.6782 63.4734 44.4234C63.4734 44.1685 63.4218 43.9164 63.3218 43.6824C63.2217 43.4485 63.0753 43.2376 62.8916 43.0628C62.7078 42.888 62.4906 42.753 62.2533 42.666C62.016 42.579 61.7635 42.5418 61.5114 42.5568" fill="#CCCCCC"/>
<path d="M64.2101 44.4071H38.7005V48.5295H64.2101V44.4071Z" fill="#8C8C8C"/>
</svg>
