<svg width="31" height="31" viewBox="0 0 31 31" fill="none" xmlns="http://www.w3.org/2000/svg">
<mask id="mask0_902_6038" style="mask-type:alpha" maskUnits="userSpaceOnUse" x="0" y="0" width="31" height="31">
<rect x="0.47998" y="0.773926" width="30" height="30" fill="#D9D9D9"/>
</mask>
<g mask="url(#mask0_902_6038)">
<path fill-rule="evenodd" clip-rule="evenodd" d="M21.6234 30.7614H13.8421L13.3939 30.7739H6.7704C6.08565 30.7739 5.52539 30.2117 5.52539 29.5244V12.9439C5.52539 12.569 5.68724 12.2192 5.9736 11.9818L9.26043 9.22041V7.63357C8.57568 7.62107 8.02787 7.03382 8.02787 6.30912V2.31079C8.02787 1.46114 8.67528 0.773926 9.45964 0.773926H19.1956C19.8804 0.773926 20.4407 1.36118 20.4407 2.09837V6.32161C20.4407 7.04631 19.8929 7.64606 19.2081 7.64606V9.12045L22.5074 11.9818C22.7813 12.2192 22.9307 12.569 22.9307 12.9314V19.5161H24.1882C24.5866 19.5161 24.9476 19.7035 25.1842 20.0159C25.4207 20.3283 25.4954 20.7281 25.3834 21.1154L22.8186 29.8618C22.6568 30.3991 22.1712 30.7614 21.6234 30.7614ZM9.45967 2.02335C9.37251 2.02335 9.27291 2.1483 9.27291 2.31073V6.32156L19.2081 6.39653V2.02335H9.45967ZM6.7704 12.9315L10.0572 10.1826C10.3436 9.94524 10.5054 9.59539 10.5054 9.22054V7.6337H17.9755V9.10809C17.9755 9.47044 18.1374 9.82029 18.4113 10.0577L21.7106 12.919V19.5038H11.2774C10.8789 19.5038 10.5179 19.6912 10.2813 20.0035C10.0448 20.3284 9.97009 20.7282 10.0821 21.1031L12.5473 29.4996H6.7704V12.9315ZM13.842 29.512H21.6233L24.2005 20.7656H11.2773L11.6383 22.0151H17.9754V23.2646H12.0118L12.3729 24.514H16.7304V25.7635H12.7464L13.1074 27.013H19.2205V28.2625H13.4809L13.842 29.512Z" fill="black"/>
</g>
</svg>
