<svg width="30" height="30" viewBox="10 10 31 31" fill="none" xmlns="http://www.w3.org/2000/svg">

<g mask="url(#mask0_8_2516)">
<path d="M35.1179 16.2478C34.5749 15.569 33.8962 15.1618 33.3532 14.7545C32.6745 14.3473 31.9957 14.2116 31.1812 14.2116C30.5025 14.2116 29.8238 14.6188 29.145 15.1618C28.8735 15.569 28.6021 15.7048 28.3306 15.7048H28.1948V11.6324C28.1948 10.8179 27.6518 10.2749 26.8374 10.2749H25.4799H24.1224C23.3079 10.2749 22.765 10.8179 22.765 11.6324V15.7048H22.6292C22.3577 15.7048 22.0862 15.569 21.679 15.1618C21.0002 14.6188 20.4573 14.3473 19.7785 14.2116C18.964 14.2116 18.2853 14.3473 17.6066 14.7545C16.9278 15.1618 16.3849 15.569 15.8419 16.2478C15.5704 16.5192 9.19029 22.8993 10.8193 35.1165C10.8193 35.2523 11.0907 38.5102 13.1269 39.7319C13.5342 40.0034 13.9414 40.1392 14.6202 40.1392C15.2989 40.1392 15.9776 40.0034 16.7921 39.5962L21.8147 36.6097C21.9505 36.474 22.0862 36.474 22.222 36.3383C22.765 36.0668 23.4437 35.6595 23.8509 35.1165C24.8012 34.0306 24.8012 32.6731 24.8012 31.4514V31.1799C24.8012 29.8224 24.8012 28.4649 24.8012 27.1075C24.8012 26.293 24.8012 25.3428 24.8012 24.3925C24.8012 23.1708 24.8012 21.8134 24.5297 20.3202C24.5297 20.0487 24.3939 19.7772 24.2582 19.5057C24.6654 19.3699 25.0726 19.3699 25.6156 19.3699C25.7514 19.3699 26.0229 19.3699 26.1586 19.3699C26.2944 19.3699 26.4301 19.3699 26.7016 19.5057H26.8374C26.7016 19.7772 26.7016 20.0487 26.5659 20.3202C26.2944 21.6776 26.2944 23.1708 26.2944 24.3925C26.2944 25.3428 26.2944 26.1573 26.2944 27.1075C26.2944 28.4649 26.2944 29.8224 26.2944 31.1799V31.4514C26.2944 32.6731 26.2944 34.0306 27.2446 35.1165C27.6518 35.6595 28.3306 35.931 28.8735 36.3383C29.0093 36.474 29.145 36.474 29.2808 36.6097L34.3034 39.7319C34.9821 40.1392 35.6609 40.2749 36.3396 40.2749C36.8826 40.2749 37.4256 40.1392 37.8328 39.8677C39.869 38.6459 40.1405 35.388 40.1405 35.2523C41.7695 22.7636 35.3894 16.5192 35.1179 16.2478ZM25.4799 18.0125C24.6654 18.0125 23.8509 18.1482 23.0364 18.5554C22.0862 19.0984 21.2717 19.9129 20.8645 20.8631C20.7288 21.1346 20.4573 21.5419 20.3215 21.9491C20.05 22.4921 19.9143 23.0351 19.6428 23.5781L16.5206 24.2568L16.7921 25.6143L18.964 25.207V25.3428C18.4211 26.5645 18.0138 27.7862 17.4708 29.0079L17.3351 29.2794C17.1993 29.8224 16.9278 30.2297 16.7921 30.7726C16.2491 31.0441 14.8916 31.5871 13.6699 32.1301L14.2129 33.3518C15.2989 32.8088 16.1134 32.5373 16.6564 32.2659V34.7093H18.0138V31.4514C18.1496 30.9084 18.4211 30.3654 18.5568 29.8224L18.6926 29.4152C19.0998 28.1935 19.6428 26.9717 20.1858 25.75C20.593 24.664 21.136 23.4423 21.5432 22.3563C21.679 21.9491 21.8147 21.6776 21.9505 21.2704C22.222 20.8631 22.4935 20.4559 22.9007 20.1844C22.9007 20.3202 23.0364 20.4559 23.0364 20.5916C23.3079 21.8134 23.3079 23.1708 23.3079 24.3925C23.3079 25.3428 23.3079 26.293 23.3079 27.1075C23.3079 28.4649 23.3079 29.8224 23.3079 31.1799V31.4514C23.3079 32.5373 23.3079 33.4876 22.6292 34.1663C22.3577 34.4378 21.8147 34.7093 21.4075 34.9808C21.2717 35.1165 21.0002 35.1165 20.8645 35.2523L15.9776 38.3744C15.0274 38.7817 14.2129 38.9174 13.6699 38.5102C12.584 37.8315 12.1767 35.7953 12.041 34.9808C10.6835 23.3066 16.7921 17.198 16.7921 17.198C17.3351 16.655 17.7423 16.2478 18.2853 15.8405C18.6926 15.7048 19.2355 15.569 19.6428 15.569C20.05 15.569 20.4573 15.8405 20.8645 16.2478C21.4075 16.655 21.9505 17.198 22.9007 17.0622H23.0364C23.5794 17.0622 24.1224 16.7907 24.1224 15.7048V11.6324H25.4799H26.8374V15.7048C26.8374 16.7907 27.3803 16.9265 27.9233 17.0622H28.0591C28.8735 17.198 29.5523 16.655 30.0953 16.2478C30.5025 15.8405 30.9097 15.7048 31.317 15.569C31.7242 15.569 32.2672 15.7048 32.6745 15.8405C33.2174 16.112 33.6247 16.5192 34.1677 17.0622C34.1677 17.0622 40.2763 23.3066 38.783 34.9808C38.783 35.7953 38.3758 37.8315 37.1541 38.5102C36.6111 38.9174 35.7966 38.7817 34.8464 38.3744L29.8238 35.388C29.688 35.2523 29.5523 35.2523 29.2808 35.1165C28.8735 34.845 28.3306 34.5735 28.0591 34.3021C27.3803 33.6233 27.3803 32.5373 27.3803 31.5871V31.3156C27.3803 29.9582 27.3803 28.6007 27.3803 27.2432C27.3803 26.4287 27.3803 25.4785 27.3803 24.5283C27.3803 23.3066 27.3803 22.0849 27.6518 20.7274C27.6518 20.5916 27.7876 20.4559 27.7876 20.1844C28.0591 20.3202 28.3306 20.5916 28.4663 20.8631C29.0093 21.5419 29.2808 22.2206 29.688 23.1708C29.9595 23.7138 30.0953 24.2568 30.3668 24.9355L30.774 25.8858C31.1812 27.1075 31.7242 28.3292 32.1315 29.5509L32.2672 29.8224C32.403 30.3654 32.6745 30.9084 32.8102 31.3156V34.7093H34.1677V32.4016C34.7107 32.6731 35.5251 32.9446 36.7469 33.4876L37.2898 32.2659C36.0681 31.7229 34.7107 31.0441 34.1677 30.9084C34.0319 30.3654 33.7604 29.8224 33.6247 29.2794L33.4889 29.0079C33.0817 27.7862 32.5387 26.5645 32.1315 25.3428V25.207L34.3034 25.75L34.5749 24.3925L31.5885 23.7138C31.4527 23.3066 31.317 23.0351 31.1812 22.6278C30.774 21.8134 30.5025 20.8631 29.8238 20.1844C29.145 19.0984 28.1948 18.5554 26.8374 18.284C26.7016 18.284 26.4301 18.1482 26.2944 18.1482C26.0229 18.1482 25.8871 18.0125 25.4799 18.0125Z" fill="black"/>
</g>
</svg>
