<?xml version="1.0" encoding="UTF-8"?>
<svg width="30px" height="30px" viewBox="0 0 30 30" version="1.1" xmlns="http://www.w3.org/2000/svg" xmlns:xlink="http://www.w3.org/1999/xlink">
    <title>Group</title>
    <defs>
        <rect id="path-1" x="0" y="0" width="30" height="30"></rect>
    </defs>
    <g id="page" stroke="none" stroke-width="1" fill="none" fill-rule="evenodd">
        <g id="1280" transform="translate(-878.000000, -2799.000000)">
            <g id="Minute-clinic" transform="translate(0.000000, 2163.000000)">
                <g id="Wellness-buttons" transform="translate(43.000000, 617.000000)">
                    <g id="homepage-/-components-/-minuteclinic-/-icon-button-/-1-/-desktop" transform="translate(820.000000, 0.000000)">
                        <g id="Group" transform="translate(15.000000, 19.000000)">
                            <mask id="mask-2" fill="white">
                                <use xlink:href="#path-1"></use>
                            </mask>
                            <g id="maximum-area"></g>
                            <g id="CC_stethoscope" mask="url(#mask-2)" fill="#000000" fill-rule="nonzero">
                                <g transform="translate(3.348773, 0.000000)" id="Shape">
                                    <path d="M23.3024548,6.10004632 C23.3024548,5.3913849 23.0245484,4.72440945 22.5243168,4.22417786 L19.7174618,1.41732283 C19.2172302,0.917091246 18.5502547,0.639184808 17.8415933,0.639184808 C17.8415933,0.639184808 17.8415933,0.639184808 17.8415933,0.639184808 C17.7026401,0.639184808 17.5775822,0.639184808 17.4525243,0.639184808 L17.4525243,0 L16.1185734,0 L16.1185734,2.61232052 L17.4525243,2.61232052 L17.4525243,1.97313571 C17.5775822,1.97313571 17.7165354,1.97313571 17.8415933,1.97313571 L17.8415933,1.97313571 C18.1889764,1.97313571 18.5224641,2.11208893 18.7725799,2.36220472 L21.5794349,5.16905975 C21.8295507,5.41917554 21.9685039,5.75266327 21.9685039,6.10004632 C21.9685039,6.44742937 21.8295507,6.78091709 21.5794349,7.03103289 L19.2589162,9.35155164 L9.40713293,9.35155164 L7.08661417,7.03103289 C6.83649838,6.78091709 6.69754516,6.44742937 6.69754516,6.10004632 C6.69754516,5.75266327 6.83649838,5.41917554 7.08661417,5.16905975 L9.90736452,2.36220472 C10.1574803,2.11208893 10.490968,1.97313571 10.8383511,1.97313571 C10.8383511,1.97313571 10.8383511,1.97313571 10.8383511,1.97313571 C10.963409,1.97313571 11.1023622,1.97313571 11.2135248,1.97313571 L11.2135248,2.61232052 L12.5474757,2.61232052 L12.5474757,0 L11.2135248,0 L11.2135248,0.625289486 C11.0884669,0.625289486 10.963409,0.625289486 10.8383511,0.625289486 C10.8383511,0.625289486 10.8383511,0.625289486 10.8383511,0.625289486 C10.1296897,0.625289486 9.46271422,0.903195924 8.96248263,1.40342751 L6.14173228,4.22417786 C5.64150069,4.72440945 5.36359426,5.3913849 5.36359426,6.10004632 C5.36359426,6.80870774 5.64150069,7.47568319 6.14173228,7.97591478 L13.6591014,15.4932839 L13.6591014,27.3459935 C13.6591014,27.6933766 13.5201482,28.0268643 13.2700324,28.2769801 C13.0199166,28.5270959 12.6864289,28.6660491 12.3390459,28.6660491 C12.3390459,28.6660491 12.3390459,28.6660491 12.3390459,28.6660491 L10.2269569,28.6660491 C9.49050486,28.6660491 8.90690134,28.0824456 8.90690134,27.3459935 L8.89300602,15.757295 C8.89300602,15.0486336 8.61509958,14.3816582 8.12876332,13.8814266 C7.62853173,13.381195 6.96155628,13.1032886 6.23899954,13.1032886 L4.12691061,13.1032886 C4.12691061,13.1032886 4.12691061,13.1032886 4.12691061,13.1032886 C3.41824919,13.1032886 2.75127374,13.381195 2.25104215,13.8814266 C1.75081056,14.3816582 1.47290412,15.0486336 1.47290412,15.757295 L1.47290412,23.0245484 C0.611394164,23.3163502 0,24.1083835 0,25.0532654 C0,26.2482631 0.958777212,27.2070403 2.1537749,27.2070403 C3.34877258,27.2070403 4.30754979,26.2482631 4.30754979,25.0532654 C4.30754979,24.0944882 3.66836498,23.2885595 2.80685503,23.0106531 L2.80685503,15.757295 C2.80685503,15.409912 2.94580824,15.0764243 3.19592404,14.8263085 C3.44603983,14.5761927 3.77952756,14.4372395 4.12691061,14.4372395 C4.12691061,14.4372395 4.12691061,14.4372395 4.12691061,14.4372395 L6.23899954,14.4372395 C6.9754516,14.4372395 7.55905512,15.020843 7.55905512,15.757295 L7.57295044,27.3459935 C7.57295044,28.0546549 7.85085688,28.7216304 8.33719314,29.221862 C8.83742473,29.7220936 9.50440019,30 10.2269569,30 L12.3390459,30 C12.3390459,30 12.3390459,30 12.3390459,30 C13.0477073,30 13.7146827,29.7220936 14.2149143,29.221862 C14.7151459,28.7216304 14.9930523,28.0546549 14.9930523,27.3459935 L14.9930523,15.4932839 L22.5104215,7.97591478 C23.0245484,7.47568319 23.3024548,6.80870774 23.3024548,6.10004632 Z M3.09865679,25.0532654 C3.09865679,25.5673923 2.68179713,25.9981473 2.1537749,25.9981473 C1.62575266,25.9981473 1.22278833,25.5812876 1.22278833,25.0532654 C1.22278833,24.5391385 1.63964799,24.1083835 2.1537749,24.1083835 C2.66790181,24.1083835 3.09865679,24.5391385 3.09865679,25.0532654 Z M17.9249653,10.6993979 L14.3399722,14.2843909 L10.7549792,10.6993979 L17.9249653,10.6993979 Z"></path>
                                </g>
                            </g>
                        </g>
                    </g>
                </g>
            </g>
        </g>
    </g>
</svg>