<?xml version="1.0" encoding="UTF-8"?>
<svg width="30px" height="30px" viewBox="0 0 30 30" version="1.1" xmlns="http://www.w3.org/2000/svg" xmlns:xlink="http://www.w3.org/1999/xlink">
    <title>Group</title>
    <defs>
        <rect id="path-1" x="0" y="0" width="30" height="30"></rect>
    </defs>
    <g id="page" stroke="none" stroke-width="1" fill="none" fill-rule="evenodd">
        <g id="1280" transform="translate(-878.000000, -2900.000000)">
            <g id="Minute-clinic" transform="translate(0.000000, 2163.000000)">
                <g id="Wellness-buttons" transform="translate(43.000000, 617.000000)">
                    <g id="homepage-/-components-/-minuteclinic-/-icon-button-/-1-/-desktop" transform="translate(820.000000, 101.000000)">
                        <g id="Group" transform="translate(15.000000, 19.000000)">
                            <mask id="mask-2" fill="white">
                                <use xlink:href="#path-1"></use>
                            </mask>
                            <g id="maximum-area"></g>
                            <g id="CC_medical-shield" mask="url(#mask-2)" fill="#000000" fill-rule="nonzero">
                                <g transform="translate(2.257824, 0.000000)" id="Shape">
                                    <path d="M12.7421759,30 L12.3845007,29.7764531 C12.2593145,29.6959762 9.27272727,27.8181818 6.23248882,24.8315946 C4.43517139,23.0700447 3.00447094,21.2816692 1.97615499,19.5290611 C0.661698957,17.3114754 0,15.1117735 0,13.0193741 L0,0 L25.4843517,0 L25.4843517,13.0193741 C25.4843517,15.1117735 24.8226528,17.3114754 23.5081967,19.5469449 C22.4798808,21.2995529 21.0491803,23.0789866 19.2518629,24.8494784 C16.2205663,27.8360656 13.2250373,29.7138599 13.099851,29.7943368 L12.7421759,30 Z M1.34128167,1.34128167 L1.34128167,13.0193741 C1.34128167,14.8703428 1.94038748,16.8375559 3.13859911,18.8584203 C4.11326379,20.5126677 5.47242921,22.2026826 7.18032787,23.8837556 C9.51415797,26.1818182 11.8748137,27.8271237 12.7421759,28.4083458 C13.6184799,27.8181818 15.9880775,26.1639344 18.3308495,23.8658718 C20.0387481,22.1847988 21.3889717,20.5037258 22.3636364,18.8494784 C23.5529061,16.828614 24.1520119,14.8703428 24.1520119,13.0193741 L24.1520119,1.34128167 L1.34128167,1.34128167 Z M15.8718331,20.6467958 L9.62146051,20.6467958 L9.62146051,15.6482861 L4.61400894,15.6482861 L4.61400894,9.39791356 L9.61251863,9.39791356 L9.61251863,4.390462 L15.8628912,4.390462 L15.8628912,9.38897168 L20.8614009,9.38897168 L20.8614009,15.6393443 L15.8628912,15.6393443 L15.8628912,20.6467958 L15.8718331,20.6467958 Z M10.9627422,19.3055142 L14.5305514,19.3055142 L14.5305514,14.3070045 L19.5290611,14.3070045 L19.5290611,10.7391952 L14.5305514,10.7391952 L14.5305514,5.73174367 L10.9627422,5.73174367 L10.9627422,10.7302534 L5.95529061,10.7302534 L5.95529061,14.2980626 L10.9538003,14.2980626 L10.9538003,19.3055142 L10.9627422,19.3055142 Z"></path>
                                </g>
                            </g>
                        </g>
                    </g>
                </g>
            </g>
        </g>
    </g>
</svg>