<?xml version="1.0" encoding="utf-8"?>
<!-- Generator: Adobe Illustrator 24.0.3, SVG Export Plug-In . SVG Version: 6.00 Build 0)  -->
<svg version="1.1" id="Layer_1" xmlns="http://www.w3.org/2000/svg" xmlns:xlink="http://www.w3.org/1999/xlink" x="0px" y="0px"
	 viewBox="0 0 119.87 159.03" style="enable-background:new 0 0 119.87 159.03;" xml:space="preserve">
<style type="text/css">
	.st0{fill:#FFFFFF;}
	.st1{fill:#76777A;}
	.st2{font-family:'Roboto-Medium';}
	.st3{font-size:12.2027px;}
	.st4{fill:#DB0032;}
	.st5{font-family:'Roboto-Black';}
</style>
<rect class="st0" width="119.87" height="159.03"/>
<text transform="matrix(1 0 0 1 13.4972 145.3485)" class="st1 st2 st3">Digital Pharmacy </text>
<text transform="matrix(1 0 0 1 13.9821 129.2684)" class="st4 st5 st3">Accredited</text>
<g>
	<path class="st4" d="M36.23,112.51h-6.49l-9.6-16.2v16.2H13.6V86.47h6.53l9.58,16.2c0,0,0-10.27,0-12.4c0-3.99,6.51-4.98,6.51-4.98
		V112.51z"/>
	<path class="st4" d="M55.02,107.65h-8.95l-1.56,4.86h-6.98l9.94-26.04h6.14l10.01,26.04H56.6L55.02,107.65z M47.63,102.8h5.82
		l-2.92-9.03L47.63,102.8z"/>
</g>
<g>
	<path class="st4" d="M82.09,99.22c1.25-0.45,2.2-1.16,2.85-2.11c0.64-0.95,0.97-2.1,0.97-3.45c0-2.34-0.91-4.12-2.73-5.35
		c-1.82-1.23-4.47-1.84-7.96-1.84h-9.73v26.04h11c3.3-0.02,5.79-0.68,7.47-1.96c1.68-1.28,2.52-3.2,2.52-5.75
		c0-1.41-0.38-2.6-1.14-3.58C84.59,100.25,83.51,99.58,82.09,99.22z M72.03,91.3h3.2c1.46,0,2.52,0.24,3.18,0.73
		c0.66,0.48,0.99,1.28,0.99,2.38c0,0.96-0.3,1.68-0.91,2.17c-0.61,0.49-1.63,0.74-3.05,0.75h-3.39h-0.01V91.3z M79.02,106.91
		c-0.63,0.52-1.54,0.78-2.72,0.78h-4.28v-6.24h0.01h4.56c2.25,0.01,3.37,1.1,3.37,3.27C79.97,105.66,79.66,106.39,79.02,106.91z"/>
	<path class="st4" d="M109.03,90.7c-0.87-1.35-2.11-2.4-3.7-3.13c-1.59-0.73-3.43-1.1-5.5-1.1H89.01v26.04h6.53v-8.83h0.01h4.16
		c3.3,0,5.9-0.76,7.79-2.28c1.89-1.52,2.84-3.55,2.84-6.09C110.34,93.59,109.9,92.05,109.03,90.7z M102.72,97.92
		c-0.66,0.61-1.63,0.91-2.89,0.91h-4.27h-0.01v-7.51h4.35c1.18,0.01,2.11,0.38,2.79,1.11c0.68,0.73,1.02,1.7,1.02,2.92
		C103.71,96.45,103.38,97.31,102.72,97.92z"/>
</g>
<path class="st4" d="M46.6,79.3c-19.29,0-34.98-15.69-34.98-34.98c0-19.29,15.69-34.98,34.98-34.98c19.29,0,34.98,15.69,34.98,34.98
	C81.58,63.61,65.89,79.3,46.6,79.3z M46.6,12.79c-17.39,0-31.53,14.14-31.53,31.53S29.22,75.86,46.6,75.86
	c17.39,0,31.53-14.14,31.53-31.53S63.99,12.79,46.6,12.79z"/>
<path class="st4" d="M46.5,69.19c0,0,0-0.01,0-0.03C46.5,69.18,46.5,69.19,46.5,69.19z"/>
<g>
	<g>
		<path class="st4" d="M56.66,29.18L31.34,29.4v1.58c0,5.58,3.01,10.47,7.49,13.13c3.61-2.46,8.73-2.31,9.42-2.67
			c0.14-2.48,0.1-3.75,0.1-3.98c0-1.04-0.8-1.88-1.79-1.88c-0.99,0-1.79,0.84-1.79,1.88c0,0.12,0.02,0.63,0.07,1.45l-4.89-0.01
			l0.7,2.57c-3.21-1.83-5.5-5.09-6-8.9l22.13-0.19C56.88,31.6,57.01,30.24,56.66,29.18z"/>
		<path class="st4" d="M45.3,48.1c0.51,9.04,1.19,20.42,1.2,21.06c0.03-0.65,0.75-12.39,1.29-21.45
			C47.49,47.54,45.54,47.91,45.3,48.1z"/>
	</g>
</g>
<path class="st4" d="M51.87,45.79c3.03,1.36,5.5,3.84,6.82,6.84c1.33,2.99,1.48,6.44,0.46,9.5c-1.01,3.06-3.19,5.68-5.96,7.23
	c-2.76,1.57-6.07,2.05-9.12,1.37c-3.05-0.68-5.78-2.53-7.55-5.05c-1.78-2.51-2.56-5.65-2.2-8.66c0.37-3.01,1.81-5.9,4.14-7.76
	c1.5-1.19,4.29-2.91,10.12-3.57c1.23-0.14,13.28-1.39,13.28-14.72c0-8.42-6.91-15.31-15.32-15.59c-4.12-0.14-9.52,0.92-12.12,6.21
	c-1.38,2.81,0.13,6.66,0.13,6.66c1.27-5.51,6.39-9.35,12.05-9.35c6.66,0,12.27,5.42,12.07,12.07C58.33,42.2,47.79,42.93,46.6,43.05
	c-2.48,0.24-7.35,1.64-10.01,4.15c-2.68,2.49-4.36,5.99-4.65,9.59c-0.29,3.6,0.79,7.27,2.98,10.09c2.16,2.83,5.37,4.8,8.84,5.43
	c3.46,0.62,7.11-0.07,10.05-1.91c2.95-1.82,5.16-4.74,6.11-8.03c0.94-3.29,0.63-6.88-0.87-9.91C57.57,49.43,54.95,47.03,51.87,45.79
	z"/>
<g>
	<path class="st1" d="M76.47,74.38v-2.93h-1.1v-0.39h2.63v0.39h-1.1v2.93H76.47z"/>
	<path class="st1" d="M78.44,74.38v-3.32h0.66l0.79,2.35c0.07,0.22,0.13,0.38,0.16,0.49c0.04-0.12,0.1-0.3,0.18-0.53l0.8-2.31h0.59
		v3.32h-0.42v-2.78l-0.97,2.78h-0.4l-0.96-2.83v2.83H78.44z"/>
</g>
</svg>
