<svg width="85" height="85" viewBox="0 0 85 85" fill="none" xmlns="http://www.w3.org/2000/svg">
<circle cx="42.48" cy="42.5615" r="42" fill="#CC0000"/>
<path d="M26.4719 73.9558L11.437 58.9209L15.164 55.1939L30.1142 58.1586L21.1568 49.2011L24.8626 45.4954L39.8975 60.5303L36.1705 64.2572L21.2203 61.2926L30.1777 70.25L26.4719 73.9558Z" fill="white"/>
<path d="M42.8709 57.5569L27.8359 42.522L38.1274 32.2305L41.2615 35.3645L34.7817 41.8443L37.5345 44.5972L43.5485 38.5832L46.5131 41.5479L40.4992 47.5618L43.5485 50.6112L50.0283 44.1313L53.1624 47.2654L42.8709 57.5569Z" fill="white"/>
<path d="M58.7662 41.6615L39.2843 31.0736L43.329 27.029L55.5686 34.3558L48.3476 22.0103L51.4817 18.8762L64.1661 26.2243L56.6698 13.6881L60.545 9.81293L71.1329 29.2948L67.4907 32.937L55.4416 25.9702L62.3873 38.0404L58.7662 41.6615Z" fill="white"/>
</svg>
