<?xml version="1.0" encoding="UTF-8"?>
<svg width="30px" height="30px" viewBox="0 0 30 30" version="1.1" xmlns="http://www.w3.org/2000/svg" xmlns:xlink="http://www.w3.org/1999/xlink">
    <title>Group</title>
    <defs>
        <rect id="path-1" x="0" y="0" width="30" height="30"></rect>
    </defs>
    <g id="page" stroke="none" stroke-width="1" fill="none" fill-rule="evenodd">
        <g id="1280" transform="translate(-58.000000, -2900.000000)">
            <g id="Minute-clinic" transform="translate(0.000000, 2163.000000)">
                <g id="Wellness-buttons" transform="translate(43.000000, 617.000000)">
                    <g id="homepage-/-components-/-minuteclinic-/-icon-button-/-1-/-desktop" transform="translate(0.000000, 101.000000)">
                        <g id="Group" transform="translate(15.000000, 19.000000)">
                            <mask id="mask-2" fill="white">
                                <use xlink:href="#path-1"></use>
                            </mask>
                            <g id="maximum-area"></g>
                            <g id="Icon/wellness" mask="url(#mask-2)" fill="#000000">
                                <g transform="translate(8.181818, 0.000000)" id="Vector">
                                    <path d="M11.1004529,1.71872833 C10.6645222,1.45285854 10.3067876,1.0762714 10.0636364,0.627272779 C9.96543446,0.440321632 9.81857371,0.28335553 9.63856122,0.172947862 C9.45854872,0.0625401939 9.25206447,0.00278799181 9.04090914,0 L1.36363635,0 C1.00197749,0 0.655131515,0.14366836 0.399400099,0.399399779 C0.143668684,0.655131198 0,1.0019775 0,1.36363636 L0,6.81818182 C0,7.17984068 0.143668684,7.52668666 0.399400099,7.78241808 C0.655131515,8.0381495 1.00197749,8.18181818 1.36363635,8.18181818 L2.72727269,8.18181818 L2.72727269,9.54545455 L1.36363635,9.54545455 C1.00197749,9.54545455 0.655131515,9.68912323 0.399400099,9.94485465 C0.143668684,10.2005861 0,10.547432 0,10.9090909 L0,28.6363636 C0,28.9980225 0.143668684,29.3448698 0.399400099,29.6006012 C0.655131515,29.8563326 1.00197749,30 1.36363635,30 L9.54545443,30 C9.90711329,30 10.2539593,29.8563326 10.5096907,29.6006012 C10.7654221,29.3448698 10.9090908,28.9980225 10.9090908,28.6363636 L10.9090908,10.9090909 C10.9090908,10.547432 10.7654221,10.2005861 10.5096907,9.94485465 C10.2539593,9.68912323 9.90711329,9.54545455 9.54545443,9.54545455 L8.18181808,9.54545455 L8.18181808,8.18181818 L9.04090914,8.18181818 C9.25206447,8.17903019 9.45854872,8.11927766 9.63856122,8.00886999 C9.81857371,7.89846233 9.96543446,7.74149655 10.0636364,7.5545454 C10.3067876,7.10554678 10.6645222,6.72895964 11.1004529,6.46308986 C11.5363835,6.19722007 12.0349567,6.05155387 12.5454554,6.04090886 C12.840897,6.02350024 13.1184868,5.89373918 13.3213232,5.67822543 C13.5241597,5.46271168 13.6368759,5.1777717 13.6363648,4.88181808 L13.6363648,3.3000001 C13.6368759,3.00404648 13.5241597,2.71910682 13.3213232,2.50359308 C13.1184868,2.28807933 12.840897,2.15831762 12.5454554,2.140909 L12.5454554,2.140909 C12.0349567,2.13026399 11.5363835,1.98459811 11.1004529,1.71872833 Z M1.36363635,1.36363636 L6.81818174,1.36363636 L6.81818174,6.81818182 L1.36363635,6.81818182 L1.36363635,1.36363636 Z M1.36363635,28.6363636 L1.36363635,15 L9.54545443,15 L9.54545443,28.6363636 L1.36363635,28.6363636 Z M1.36363635,13.6363636 L1.36363635,10.9090909 L9.54545443,10.9090909 L9.54545443,13.6363636 L1.36363635,13.6363636 Z M4.09090904,9.54545455 L4.09090904,8.18181818 L6.81818174,8.18181818 L6.81818174,9.54545455 L4.09090904,9.54545455 Z M10.3222781,5.32780669 C9.73547418,5.69754083 9.25230764,6.21039732 8.91818166,6.81818182 L8.18181808,6.81818182 L8.18181808,1.36363636 L8.91818166,1.36363636 C9.25230764,1.97142086 9.73547418,2.48427703 10.3222781,2.85401117 C10.909082,3.22374531 11.5802556,3.43821724 12.2727271,3.47727266 L12.2727271,4.70454519 C11.5802556,4.74360062 10.909082,4.95807255 10.3222781,5.32780669 Z"></path>
                                </g>
                            </g>
                        </g>
                    </g>
                </g>
            </g>
        </g>
    </g>
</svg>